<?xml version="1.0" encoding="UTF-8"?>
<svg width="20px" height="20px" viewBox="0 0 20 20" version="1.1" xmlns="http://www.w3.org/2000/svg" xmlns:xlink="http://www.w3.org/1999/xlink">
    <!-- Generator: Sketch 63.1 (92452) - https://sketch.com -->
    <title>enter</title>
    <desc>Created with Sketch.</desc>
    <g id="enter" stroke="none" stroke-width="1" fill="none" fill-rule="evenodd">
        <g id="icons8-enter" fill-rule="nonzero">
            <path d="M17.7777778,0 L8.88888889,0 C7.90666667,0 7.11111111,0.795555556 7.11111111,1.77777778 L7.11111111,5.33333333 C7.11111111,6.31555556 6.31555556,7.11111111 5.33333333,7.11111111 L1.77777778,7.11111111 C0.795555556,7.11111111 0,7.90666667 0,8.88888889 L0,17.7777778 C0,18.76 0.795555556,19.5555556 1.77777778,19.5555556 L17.7777778,19.5555556 C18.76,19.5555556 19.5555556,18.76 19.5555556,17.7777778 L19.5555556,1.77777778 C19.5555556,0.795555556 18.76,0 17.7777778,0 Z" id="Shape" fill="#585858"></path>
            <path d="M14.2222222,11.5555556 C14.2222222,13.0257778 13.0257778,14.2222222 11.5555556,14.2222222 L7.11111111,14.2222222 L7.11111111,16.8888889 L3.55555556,13.3333333 L7.11111111,9.77777778 L7.11111111,12.4444444 L11.5555556,12.4444444 C12.0453333,12.4444444 12.4444444,12.0462222 12.4444444,11.5555556 L12.4444444,6.22222222 C12.4444444,5.73066667 12.8426667,5.33333333 13.3333333,5.33333333 C13.824,5.33333333 14.2222222,5.73066667 14.2222222,6.22222222 L14.2222222,11.5555556 Z" id="Path" fill="#FFFFFF"></path>
        </g>
    </g>
</svg>